<svg width="7" height="12" viewBox="0 0 7 12" fill="none" xmlns="http://www.w3.org/2000/svg">
<path d="M0.923935 12C1.17881 12 1.39387 11.9079 1.5691 11.7238L6.3401 6.76151C6.56312 6.53556 6.66667 6.29289 6.66667 6C6.66667 5.70711 6.56312 5.45607 6.34807 5.23849L1.5691 0.276151C1.39387 0.0920502 1.17881 0 0.923935 0C0.414178 0 0 0.426778 0 0.962343C0 1.23013 0.103544 1.4728 0.286738 1.67364L4.4763 6.00837L0.286738 10.3347C0.103544 10.5272 0 10.7699 0 11.0377C0 11.5732 0.414178 12 0.923935 12Z" fill="white"/>
</svg>
